<svg width="185" height="51" viewBox="0 0 185 51" fill="none" xmlns="http://www.w3.org/2000/svg">
<g clip-path="url(#clip0_95_2419)">
<path d="M64.0909 24.6825C67.576 24.6825 70.3274 23.5622 71.9476 20.928L75.341 22.5933C73.3234 25.6817 69.4104 27.8919 63.9992 27.8919C55.9896 27.8919 50.9454 23.6228 50.9454 16.6587C50.9454 9.69475 55.9896 5.42554 64.1521 5.42554C69.4104 5.42554 73.3234 7.66611 75.3105 10.6939L71.8866 12.3895C70.2969 9.78559 67.576 8.63502 64.0909 8.63502C58.4353 8.63502 54.675 11.36 54.675 16.6587C54.675 21.9574 58.4353 24.6825 64.0909 24.6825Z" fill="white"/>
<path d="M88.5294 10.0884C94.3683 10.0884 97.9451 12.8437 97.9451 18.0515V24.0768C97.9451 25.3183 98.1593 26.3174 98.7094 27.2864H95.0103C94.5824 26.5597 94.3683 25.7421 94.3683 24.955V24.9246C93.0538 26.5295 90.4858 27.8919 87.0619 27.8919C83.4546 27.8919 78.6549 26.4386 78.6549 22.0785C78.6549 17.7488 83.4546 16.2954 87.0619 16.2954C90.4858 16.2954 93.0538 17.6579 94.3683 19.2627V18.0515C94.3683 14.4787 92.1673 12.874 87.8567 12.874C85.3805 12.874 83.4241 13.419 81.498 14.5393L80.2141 12.1473C82.2929 10.9059 85.5029 10.0884 88.5294 10.0884ZM94.4295 22.351V21.8362C93.0844 19.5352 90.2414 18.8387 87.7345 18.8387C85.5029 18.8387 82.1705 19.4141 82.1705 22.0785C82.1705 24.7733 85.5029 25.3486 87.7345 25.3486C90.2414 25.3486 93.0844 24.6218 94.4295 22.351Z" fill="white"/>
<path d="M105.6 27.8919H102.023V11.2995H105.6V14.509C107.067 12.1473 109.819 10.6939 113.243 10.6939C118.348 10.6939 120.885 13.9337 120.885 18.4149V27.8919H117.339V18.657C117.339 15.387 115.658 13.6309 112.326 13.6309C109.452 13.6309 107.037 14.9632 105.6 17.6882V27.8919Z" fill="white"/>
<path d="M137.528 23.8951L138.476 26.3478C137.1 27.256 135.235 27.8919 133.31 27.8919C130.038 27.8919 127.44 26.1661 127.44 22.7144V13.5098H124.199V10.6939H127.44V6.8486H131.017V10.6939H138.323V13.5098H131.017V22.1391C131.017 23.986 132.454 24.8944 134.196 24.8944C135.449 24.8944 136.52 24.4402 137.528 23.8951Z" fill="white"/>
<path d="M152.214 27.8919C145.734 27.8919 141.79 24.4706 141.79 18.9901C141.79 13.4795 145.734 10.0278 152.214 10.0278C158.726 10.0278 162.639 13.4795 162.639 18.9901C162.639 24.4706 158.726 27.8919 152.214 27.8919ZM152.214 24.9246C156.189 24.9246 159.155 22.9565 159.155 18.9901C159.155 14.9632 156.189 12.9951 152.214 12.9951C148.271 12.9951 145.305 14.9632 145.305 18.9901C145.305 22.9565 148.271 24.9246 152.214 24.9246Z" fill="white"/>
<path d="M169.53 27.8919H165.952V11.2995H169.53V14.509C170.997 12.1473 173.748 10.6939 177.173 10.6939C182.278 10.6939 184.815 13.9337 184.815 18.4149V27.8919H181.269V18.657C181.269 15.387 179.588 13.6309 176.256 13.6309C173.382 13.6309 170.967 14.9632 169.53 17.6882V27.8919Z" fill="white"/>
<path d="M183.031 34.1678H184.897V45.223H183.208L174.485 36.5053V45.223H172.635V34.1678H174.676L183.031 42.554V34.1678Z" fill="white"/>
<path d="M163.094 45.5548C158.804 45.5548 156.157 43.3438 156.157 39.6955C156.157 36.0472 158.804 33.8362 163.094 33.8362C167.383 33.8362 170.031 36.0472 170.031 39.6955C170.031 43.3438 167.383 45.5548 163.094 45.5548ZM163.094 43.8808C166.123 43.8808 168.068 42.3804 168.068 39.6955C168.068 37.0106 166.123 35.5103 163.094 35.5103C160.064 35.5103 158.103 37.0106 158.103 39.6955C158.103 42.3804 160.048 43.8808 163.094 43.8808Z" fill="white"/>
<path d="M153.573 45.223H151.659V34.1678H153.573V45.223Z" fill="white"/>
<path d="M149.652 34.1678V35.8262H144.565V45.223H142.652V35.8262H137.597V34.1678H149.652Z" fill="white"/>
<path d="M136.848 45.223L135.413 42.554H128.253L126.834 45.223H124.761L130.804 34.1678H132.909L138.937 45.223H136.848ZM129.114 40.9431H134.568L131.841 35.8262L129.114 40.9431Z" fill="white"/>
<path d="M117.533 34.1678C121.679 34.1678 124.326 36.2841 124.326 39.6955C124.326 43.1068 121.679 45.223 117.533 45.223H111.873V34.1678H117.533ZM117.39 43.5649C120.324 43.5649 122.365 42.254 122.365 39.6955C122.365 37.137 120.324 35.8262 117.39 35.8262H113.786V43.5649H117.39Z" fill="white"/>
<path d="M106.635 34.1678H108.5V45.223H106.81L98.0877 36.5053V45.223H96.238V34.1678H98.2791L106.635 42.554V34.1678Z" fill="white"/>
<path d="M91.1626 34.1678H93.076V40.0113C93.076 43.2806 90.9552 45.5548 87.0006 45.5548C83.062 45.5548 80.9411 43.2806 80.9411 40.0113V34.1678H82.8546V39.8849C82.8546 42.3646 84.3376 43.865 87.0006 43.865C89.6796 43.865 91.1626 42.3646 91.1626 39.8849V34.1678Z" fill="white"/>
<path d="M71.6069 45.5548C67.3175 45.5548 64.6703 43.3438 64.6703 39.6955C64.6703 36.0472 67.3175 33.8362 71.6069 33.8362C75.8963 33.8362 78.5433 36.0472 78.5433 39.6955C78.5433 43.3438 75.8963 45.5548 71.6069 45.5548ZM71.6069 43.8808C74.6366 43.8808 76.582 42.3804 76.582 39.6955C76.582 37.0106 74.6366 35.5103 71.6069 35.5103C68.5771 35.5103 66.6158 37.0106 66.6158 39.6955C66.6158 42.3804 68.5613 43.8808 71.6069 43.8808Z" fill="white"/>
<path d="M63.5589 35.842H54.5495V39.0953H62.1716V40.7853H54.5495V45.223H52.636V34.1678H63.5589V35.842Z" fill="white"/>
<path d="M39.0951 5.64143L32.403 12.2693L39.0951 18.8971L45.787 12.2693L39.0951 5.64143Z" fill="#8D8D8D"/>
<path d="M39.097 5.8084L45.621 12.2698L39.097 18.7313L32.5732 12.2698L39.097 5.8084ZM39.097 5.47803L32.2395 12.2698L39.097 19.0616L45.9545 12.2698L39.097 5.47803Z" fill="white"/>
<path d="M38.4287 5.00946L31.7366 11.6373L38.4287 18.2653L45.1206 11.6373L38.4287 5.00946Z" fill="#8D8D8D"/>
<path d="M38.4298 5.17834L44.9536 11.6398L38.4298 18.1013L31.9058 11.6398L38.4298 5.17834ZM38.4298 4.84798L31.5722 11.6398L38.4298 18.4316L45.2871 11.6398L38.4298 4.84798Z" fill="white"/>
<path d="M37.7331 4.4218L31.0412 11.0497L37.7331 17.6775L44.4252 11.0497L37.7331 4.4218Z" fill="#8D8D8D"/>
<path d="M37.7319 4.57906L44.2557 11.0405L37.7319 17.502L31.2079 11.0482L37.7319 4.57906ZM37.7319 4.25638L30.8743 11.0482L37.7319 17.8399L44.5892 11.0482L37.7319 4.25638Z" fill="white"/>
<path d="M37.0207 3.86847L30.3286 10.4963L37.0207 17.1242L43.7126 10.4963L37.0207 3.86847Z" fill="#8D8D8D"/>
<path d="M37.018 4.02591L43.542 10.4873L37.018 16.9487L30.494 10.4873L37.018 4.02591ZM37.018 3.70322L30.1605 10.495L37.018 17.2868L43.8755 10.495L37.018 3.70322Z" fill="white"/>
<path d="M36.291 3.35042L29.5989 9.97829L36.291 16.6062L42.9829 9.97829L36.291 3.35042Z" fill="#8D8D8D"/>
<path d="M36.2889 3.51116L42.8128 9.97259L36.2889 16.4341L29.765 9.97259L36.2889 3.51116ZM36.2889 3.18846L29.4314 9.98028L36.2889 16.772L43.1465 9.98028L36.2889 3.18846Z" fill="white"/>
<path d="M35.5335 2.86906L28.8414 9.49692L35.5335 16.1248L42.2254 9.49692L35.5335 2.86906Z" fill="#8D8D8D"/>
<path d="M35.5363 3.03482L42.0603 9.49627L35.5363 15.9577L29.0125 9.49627L35.5363 3.03482ZM35.5363 2.71214L28.6788 9.50395L35.5363 16.2958L42.3938 9.50395L35.5363 2.71214Z" fill="white"/>
<path d="M34.7654 2.43031L28.0735 9.05819L34.7654 15.686L41.4575 9.05819L34.7654 2.43031Z" fill="#8D8D8D"/>
<path d="M34.7684 2.59683L41.2924 9.05827L34.7684 15.5196L28.2444 9.05827L34.7684 2.59683ZM34.7684 2.27414L27.9109 9.06596L34.7684 15.8577L41.6259 9.06596L34.7684 2.27414Z" fill="white"/>
<path d="M33.9815 2.02997L27.2894 8.65785L33.9815 15.2857L40.6734 8.65785L33.9815 2.02997Z" fill="#8D8D8D"/>
<path d="M33.9849 2.19739L40.5089 8.65882L33.9849 15.1203L27.4609 8.65882L33.9849 2.19739ZM33.9849 1.86702L27.1274 8.65882L33.9849 15.4506L40.8424 8.65882L33.9849 1.86702Z" fill="white"/>
<path d="M33.182 1.66916L26.4901 8.29702L33.182 14.9249L39.8741 8.29702L33.182 1.66916Z" fill="#8D8D8D"/>
<path d="M33.1856 1.83627L39.7094 8.29771L33.1856 14.7591L26.6616 8.29771L33.1856 1.83627ZM33.1856 1.51358L26.3281 8.30539L33.1856 15.0972L40.0431 8.30539L33.1856 1.51358Z" fill="white"/>
<path d="M32.3686 1.34869L25.6766 7.97657L32.3686 14.6044L39.0605 7.97657L32.3686 1.34869Z" fill="#8D8D8D"/>
<path d="M32.3716 1.51356L38.8954 7.975L32.3716 14.4441L25.8476 7.98269L32.3716 1.51356ZM32.3716 1.19087L25.514 7.98269L32.3716 14.7745L39.2289 7.98269L32.3716 1.19087Z" fill="white"/>
<path d="M31.5514 1.06979L24.8595 7.69767L31.5514 14.3255L38.2435 7.69767L31.5514 1.06979Z" fill="#8D8D8D"/>
<path d="M31.5492 1.22927L38.0731 7.69072L31.5492 14.1522L25.0252 7.69072L31.5492 1.22927ZM31.5492 0.906586L24.6917 7.69839L31.5492 14.4902L38.4066 7.69839L31.5492 0.906586Z" fill="white"/>
<path d="M30.7197 0.822433L24.0278 7.45031L30.7197 14.0782L37.4116 7.45031L30.7197 0.822433Z" fill="#8D8D8D"/>
<path d="M30.7189 0.983454L37.2429 7.4449L30.7189 13.9063L24.1949 7.4449L30.7189 0.983454ZM30.7189 0.660767L23.8614 7.45258L30.7189 14.2444L37.5764 7.45258L30.7189 0.660767Z" fill="white"/>
<path d="M29.875 0.618576L23.1831 7.24645L29.875 13.8743L36.5671 7.24645L29.875 0.618576Z" fill="#8D8D8D"/>
<path d="M29.8737 0.775965L36.3976 7.23741L29.8737 13.7065L23.3497 7.24509L29.8737 0.775965ZM29.8737 0.453278L23.0162 7.24509L29.8737 14.0369L36.7311 7.24509L29.8737 0.453278Z" fill="white"/>
<path d="M29.0276 0.448227L22.3357 7.07609L29.0276 13.704L35.7197 7.07609L29.0276 0.448227Z" fill="#8D8D8D"/>
<path d="M29.0278 0.614627L35.5518 7.07607L29.0278 13.5375L22.5039 7.07607L29.0278 0.614627ZM29.0278 0.284256L22.1703 7.07607L29.0278 13.8679L35.8853 7.07607L29.0278 0.284256Z" fill="white"/>
<path d="M28.1732 0.317993L21.4813 6.94586L28.1732 13.5737L34.8653 6.94586L28.1732 0.317993Z" fill="#8D8D8D"/>
<path d="M28.1746 0.484057L34.6986 6.9455L28.1746 13.4069L21.6506 6.9455L28.1746 0.484057ZM28.1746 0.153687L21.3171 6.9455L28.1746 13.7373L35.0321 6.9455L28.1746 0.153687Z" fill="white"/>
<path d="M27.3121 0.228912L20.6201 6.85678L27.3121 13.4847L34.0042 6.85678L27.3121 0.228912Z" fill="#8D8D8D"/>
<path d="M27.3138 0.391794L33.8378 6.85324L27.3138 13.3224L20.7898 6.86091L27.3138 0.391794ZM27.3138 0.0691071L20.4563 6.86091L27.3138 13.6527L34.1713 6.86091L27.3138 0.0691071Z" fill="white"/>
<path d="M26.4605 0.176254L19.7686 6.80412L26.4605 13.432L33.1524 6.80412L26.4605 0.176254Z" fill="#8D8D8D"/>
<path d="M26.4606 0.338084L32.9846 6.79952L26.4606 13.261L19.9367 6.79952L26.4606 0.338084ZM26.4606 0.0153961L19.6031 6.80721L26.4606 13.599L33.3182 6.80721L26.4606 0.0153961Z" fill="white"/>
<path d="M25.592 0.166855L18.9001 6.79472L25.592 13.4226L32.2839 6.79473L25.592 0.166855Z" fill="#8D8D8D"/>
<path d="M25.5914 0.33037L32.1154 6.7918L25.5914 13.2533L19.0675 6.7918L25.5914 0.33037ZM25.5914 0L18.7417 6.7918L25.5992 13.5836L32.4489 6.7918L25.5914 0Z" fill="white"/>
<path d="M24.7286 0.190735L18.0367 6.8186L24.7286 13.4465L31.4207 6.8186L24.7286 0.190735Z" fill="#8D8D8D"/>
<path d="M24.7304 0.353343L31.2543 6.81478L24.7304 13.2762L18.2065 6.81478L24.7304 0.353343ZM24.7304 0.0306549L17.8728 6.82247L24.7304 13.6143L31.5879 6.82247L24.7304 0.0306549Z" fill="white"/>
<path d="M23.877 0.254211L17.1851 6.88208L23.877 13.51L30.569 6.88208L23.877 0.254211Z" fill="#8D8D8D"/>
<path d="M23.8772 0.414881L30.4012 6.87632L23.8772 13.3378L17.3532 6.87632L23.8772 0.414881ZM23.8772 0.0921936L17.0197 6.88401L23.8772 13.6758L30.7347 6.88401L23.8772 0.0921936Z" fill="white"/>
<path d="M23.0147 0.358154L16.3228 6.98603L23.0147 13.6139L29.7068 6.98603L23.0147 0.358154Z" fill="#8D8D8D"/>
<path d="M23.0161 0.522402L29.54 6.98384L23.0161 13.4453L16.4921 6.98384L23.0161 0.522402ZM23.0161 0.192032L16.1585 6.98384L23.0161 13.7757L29.8736 6.98384L23.0161 0.192032Z" fill="white"/>
<path d="M22.1652 0.503998L15.4732 7.13187L22.1652 13.7597L28.8572 7.13187L22.1652 0.503998Z" fill="#8D8D8D"/>
<path d="M22.1626 0.660776L28.6866 7.12222L22.1626 13.5837L15.6386 7.12222L22.1626 0.660776ZM22.1626 0.338089L15.3051 7.1299L22.1626 13.9217L29.0201 7.1299L22.1626 0.338089Z" fill="white"/>
<path d="M21.3166 0.681686L14.6246 7.30956L21.3166 13.9374L28.0086 7.30956L21.3166 0.681686Z" fill="#8D8D8D"/>
<path d="M21.3171 0.845066L27.8409 7.30651L21.3171 13.768L14.7931 7.30651L21.3171 0.845066ZM21.3171 0.514694L14.4595 7.30651L21.3171 14.0983L28.1744 7.30651L21.3171 0.514694Z" fill="white"/>
<path d="M20.4818 0.903L13.7898 7.53086L20.4818 14.1587L27.1737 7.53086L20.4818 0.903Z" fill="#8D8D8D"/>
<path d="M20.4791 1.06025L27.0031 7.52169L20.4791 13.9831L13.9552 7.52169L20.4791 1.06025ZM20.4791 0.737564L13.6216 7.52938L20.4791 14.3212L27.3367 7.52938L20.4791 0.737564Z" fill="white"/>
<path d="M19.6487 1.15826L12.9568 7.78614L19.6487 14.414L26.3407 7.78614L19.6487 1.15826Z" fill="#8D8D8D"/>
<path d="M19.6494 1.32148L26.1734 7.78292L19.6494 14.252L13.1256 7.79061L19.6494 1.32148ZM19.6494 0.991104L12.792 7.78292L19.6494 14.5747L26.507 7.78292L19.6494 0.991104Z" fill="white"/>
<path d="M18.8349 1.45378L12.143 8.08165L18.8349 14.7095L25.5269 8.08165L18.8349 1.45378Z" fill="#8D8D8D"/>
<path d="M18.8348 1.61343L25.3588 8.07487L18.8348 14.5363L12.3109 8.07487L18.8348 1.61343ZM18.8348 1.29074L11.9773 8.08255L18.8348 14.8744L25.6923 8.08255L18.8348 1.29074Z" fill="white"/>
<path d="M18.0247 1.78511L11.3326 8.41299L18.0247 15.0408L24.7166 8.41299L18.0247 1.78511Z" fill="#8D8D8D"/>
<path d="M18.0281 1.95157L24.5521 8.41301L18.0281 14.8744L11.5042 8.41301L18.0281 1.95157ZM18.0281 1.62888L11.1706 8.4207L18.0281 15.2125L24.8856 8.4207L18.0281 1.62888Z" fill="white"/>
<path d="M17.2286 2.16429L10.5366 8.79215L17.2286 15.42L23.9206 8.79215L17.2286 2.16429Z" fill="#8D8D8D"/>
<path d="M17.2289 2.32791L23.7606 8.78936L17.2366 15.2508L10.705 8.78936L17.2289 2.32791ZM17.2289 1.99754L10.3792 8.78936L17.2366 15.5812L24.0941 8.78936L17.2289 1.99754Z" fill="white"/>
<path d="M16.4539 2.57579L9.76196 9.20367L16.4539 15.8315L23.146 9.20367L16.4539 2.57579Z" fill="#8D8D8D"/>
<path d="M16.4534 2.73517L22.9774 9.19661L16.4534 15.6581L9.92956 9.19661L16.4534 2.73517ZM16.4534 2.41249L9.59598 9.2043L16.4534 15.9962L23.3109 9.2043L16.4534 2.41249Z" fill="white"/>
<path d="M15.6937 3.02621L9.00171 9.65408L15.6937 16.282L22.3856 9.65408L15.6937 3.02621Z" fill="#8D8D8D"/>
<path d="M15.6929 3.18851L22.2169 9.64994L15.6929 16.1191L9.16898 9.65762L15.6929 3.18851ZM15.6929 2.86581L8.83542 9.65762L15.6929 16.4494L22.5504 9.65762L15.6929 2.86581Z" fill="white"/>
<path d="M14.9396 3.51659L8.24759 10.1445L14.9396 16.7723L21.6316 10.1445L14.9396 3.51659Z" fill="#8D8D8D"/>
<path d="M14.9405 3.68019L21.4644 10.1416L14.9405 16.6031L8.41656 10.1416L14.9405 3.68019ZM14.9405 3.34982L8.09076 10.1416L14.9482 16.9334L21.8057 10.1416L14.9405 3.34982Z" fill="white"/>
<path d="M14.2172 4.04243L7.52524 10.6703L14.2172 17.2981L20.9092 10.6703L14.2172 4.04243Z" fill="#8D8D8D"/>
<path d="M14.2192 4.21027L20.7431 10.6717L14.2192 17.1408L7.69523 10.6794L14.2192 4.21027ZM14.2192 3.8799L7.36166 10.6717L14.2192 17.4635L21.0767 10.6717L14.2192 3.8799Z" fill="white"/>
<path d="M13.5126 4.61034L6.82062 11.2382L13.5126 17.8661L20.2046 11.2382L13.5126 4.61034Z" fill="#8D8D8D"/>
<path d="M13.5133 4.77881L20.0373 11.2402L13.5133 17.7017L6.98939 11.2402L13.5133 4.77881ZM13.5133 4.44844L6.65582 11.2402L13.5133 18.032L20.3708 11.2402L13.5133 4.44844Z" fill="white"/>
<path d="M12.8241 5.22105L6.13217 11.8489L12.8241 18.4767L19.5161 11.8489L12.8241 5.22105Z" fill="#8D8D8D"/>
<path d="M12.8228 5.37818L19.3467 11.8396L12.8228 18.3087L6.29883 11.8473L12.8228 5.37818ZM12.8228 5.05548L5.96527 11.8473L12.8228 18.639L19.6803 11.8473L12.8228 5.05548Z" fill="white"/>
<path d="M12.1657 5.86508L5.47372 12.493L12.1657 19.1208L18.8576 12.493L12.1657 5.86508Z" fill="#8D8D8D"/>
<path d="M12.1631 6.0235L18.687 12.485L12.1631 18.9464L5.63917 12.485L12.1631 6.0235ZM12.1631 5.70082L5.3056 12.4926L12.1631 19.2845L19.0206 12.4926L12.1631 5.70082Z" fill="white"/>
<path d="M11.543 6.53125L4.85104 13.1591L11.543 19.7871L18.235 13.1591L11.543 6.53125Z" fill="#8D8D8D"/>
<path d="M11.5431 6.69196L18.0671 13.1534L11.5431 19.6224L5.0192 13.1611L11.5431 6.69196ZM11.5431 6.36926L4.68564 13.1611L11.5431 19.9529L18.4006 13.1611L11.5431 6.36926Z" fill="white"/>
<path d="M10.9533 7.22565L4.26135 13.8535L10.9533 20.4814L17.6453 13.8535L10.9533 7.22565Z" fill="#8D8D8D"/>
<path d="M10.9532 7.39108L17.477 13.8525L10.9532 20.314L4.42924 13.8525L10.9532 7.39108ZM10.9532 7.06071L4.09567 13.8525L10.9532 20.6443L17.8107 13.8525L10.9532 7.06071Z" fill="white"/>
<path d="M10.4098 7.93726L3.71783 14.5651L10.4098 21.1931L17.1017 14.5651L10.4098 7.93726Z" fill="#8D8D8D"/>
<path d="M10.4103 8.09787L16.9342 14.5593L10.4103 21.0208L3.88633 14.5593L10.4103 8.09787ZM10.4103 7.77519L3.55276 14.567L10.4103 21.3588L17.2678 14.567L10.4103 7.77519Z" fill="white"/>
<path d="M9.89682 8.67108L3.20486 15.2989L9.89682 21.9267L16.5888 15.2989L9.89682 8.67108Z" fill="#8D8D8D"/>
<path d="M9.89822 8.83545L16.4221 15.2969L9.89822 21.7584L3.37429 15.2969L9.89822 8.83545ZM9.89822 8.50508L3.04071 15.2969L9.89822 22.0887L16.7556 15.2969L9.89822 8.50508Z" fill="white"/>
<path d="M9.4325 9.42107L2.74054 16.0489L9.4325 22.6769L16.1244 16.0489L9.4325 9.42107Z" fill="#8D8D8D"/>
<path d="M9.43267 9.58071L15.9567 16.0422L9.43267 22.5036L2.90873 16.0422L9.43267 9.58071ZM9.43267 9.25803L2.57516 16.0498L9.43267 22.8417L16.2902 16.0498L9.43267 9.25803Z" fill="white"/>
<path d="M9.00086 10.1924L2.3089 16.8202L9.00086 23.4481L15.6928 16.8202L9.00086 10.1924Z" fill="#8D8D8D"/>
<path d="M8.99825 10.3491L15.5222 16.8105L8.99825 23.272L2.47433 16.8105L8.99825 10.3491ZM8.99825 10.0264L2.14075 16.8182L8.99825 23.6101L15.8557 16.8182L8.99825 10.0264Z" fill="white"/>
<path d="M8.60805 10.9681L1.91608 17.5959L8.60804 24.2239L15.3 17.5959L8.60805 10.9681Z" fill="#8D8D8D"/>
<path d="M8.61063 11.1327L15.1346 17.5942L8.61063 24.0556L2.08671 17.5942L8.61063 11.1327ZM8.61063 10.81L1.75314 17.6018L8.61063 24.3937L15.4681 17.6018L8.61063 10.81Z" fill="white"/>
<path d="M8.2611 11.7645L1.56912 18.3924L8.26108 25.0202L14.9531 18.3924L8.2611 11.7645Z" fill="#8D8D8D"/>
<path d="M8.26185 11.9317L14.7858 18.3932L8.26185 24.8547L1.73016 18.3932L8.26185 11.9317ZM8.26185 11.6014L1.40436 18.3932L8.26185 25.185L15.1193 18.3932L8.26185 11.6014Z" fill="white"/>
<path d="M7.9496 12.5699L1.25763 19.1979L7.9496 25.8257L14.6416 19.1979L7.9496 12.5699Z" fill="#8D8D8D"/>
<path d="M7.95159 12.7385L14.4755 19.1999L7.95159 25.6614L1.4199 19.1999L7.95159 12.7385ZM7.95159 12.4081L1.09409 19.1999L7.95159 25.9917L14.8091 19.1999L7.95159 12.4081Z" fill="white"/>
<path d="M7.67476 13.395L0.982788 20.0229L7.67476 26.6507L14.3667 20.0229L7.67476 13.395Z" fill="#8D8D8D"/>
<path d="M7.67216 13.5529L14.1961 20.0143L7.67216 26.4758L1.14823 20.0143L7.67216 13.5529ZM7.67216 13.2302L0.814667 20.0221L7.67216 26.8139L14.5297 20.0221L7.67216 13.2302Z" fill="white"/>
<path d="M7.43724 14.2176L0.74527 20.8455L7.43724 27.4733L14.1292 20.8455L7.43724 14.2176Z" fill="#8D8D8D"/>
<path d="M7.43892 14.3827L13.9628 20.8441L7.43892 27.3056L0.914987 20.8441L7.43892 14.3827ZM7.43892 14.0523L0.581421 20.8441L7.43892 27.636L14.2964 20.8441L7.43892 14.0523Z" fill="white"/>
<path d="M7.24467 15.0536L0.552704 21.6814L7.24467 28.3093L13.9366 21.6814L7.24467 15.0536Z" fill="#8D8D8D"/>
<path d="M7.24541 15.2202L13.7693 21.6817L7.24541 28.1508L0.721474 21.6817L7.24541 15.2202ZM7.24541 14.8898L0.387909 21.6817L7.24541 28.4733L14.1029 21.6817L7.24541 14.8898Z" fill="white"/>
<path d="M7.09151 15.897L0.399536 22.5248L7.09151 29.1526L13.7835 22.5248L7.09151 15.897Z" fill="#8D8D8D"/>
<path d="M7.09014 16.0576L13.6141 22.5191L7.09014 28.9804L0.566202 22.5191L7.09014 16.0576ZM7.09014 15.7348L0.232635 22.5267L7.09014 29.3185L13.9476 22.5267L7.09014 15.7348Z" fill="white"/>
<path d="M6.97382 16.7418L0.28186 23.3698L6.97382 29.9976L13.6658 23.3698L6.97382 16.7418Z" fill="#8D8D8D"/>
<path d="M6.97395 16.9027L13.4979 23.3642L6.97395 29.8256L0.450022 23.3642L6.97395 16.9027ZM6.97395 16.58L0.116455 23.3718L6.97395 30.1636L13.8314 23.3718L6.97395 16.58Z" fill="white"/>
<path d="M6.898 17.5938L0.206024 24.2216L6.898 30.8494L13.59 24.2216L6.898 17.5938Z" fill="#8D8D8D"/>
<path d="M6.89661 17.7554L13.4206 24.2169L6.89661 30.686L0.37269 24.2245L6.89661 17.7554ZM6.89661 17.4328L0.0391235 24.2245L6.89661 31.0164L13.7541 24.2245L6.89661 17.4328Z" fill="white"/>
<path d="M6.85338 18.4408L0.161407 25.0686L6.85338 31.6966L13.5454 25.0686L6.85338 18.4408Z" fill="#8D8D8D"/>
<path d="M6.85749 18.6083L13.3814 25.0698L6.85749 31.5313L0.333567 25.0698L6.85749 18.6083ZM6.85749 18.2858L0 25.0776L6.85749 31.8693L13.715 25.0776L6.85749 18.2858Z" fill="white"/>
<path d="M6.85888 19.2992L0.166901 25.9272L6.85888 32.5551L13.5508 25.9272L6.85888 19.2992Z" fill="#8D8D8D"/>
<path d="M6.85749 19.4612L13.3814 25.9227L6.85749 32.3841L0.333567 25.9227L6.85749 19.4612ZM6.85749 19.1385L0 25.9303L6.85749 32.7222L13.715 25.9303L6.85749 19.1385Z" fill="white"/>
<path d="M6.89311 20.1465L0.201141 26.7744L6.89311 33.4024L13.5851 26.7744L6.89311 20.1465Z" fill="#8D8D8D"/>
<path d="M6.89661 20.314L13.4206 26.7755L6.89661 33.2368L0.37269 26.7755L6.89661 20.314ZM6.89661 19.9912L0.0391235 26.7831L6.89661 33.5749L13.7541 26.7831L6.89661 19.9912Z" fill="white"/>
<path d="M6.97231 20.9991L0.280334 27.627L6.97231 34.2548L13.6643 27.627L6.97231 20.9991Z" fill="#8D8D8D"/>
<path d="M6.97395 21.1669L13.4979 27.6282L6.97395 34.0897L0.450022 27.6282L6.97395 21.1669ZM6.97395 20.8364L0.116455 27.6282L6.97395 34.42L13.8314 27.6282L6.97395 20.8364Z" fill="white"/>
<path d="M7.08723 21.8454L0.395264 28.4732L7.08723 35.101L13.7792 28.4732L7.08723 21.8454Z" fill="#8D8D8D"/>
<path d="M7.09014 22.0119L13.6141 28.4734L7.09014 34.9349L0.566202 28.4734L7.09014 22.0119ZM7.09014 21.6815L0.232635 28.4734L7.09014 35.2652L13.9476 28.4734L7.09014 21.6815Z" fill="white"/>
<path d="M7.24499 22.6902L0.553009 29.318L7.24499 35.9459L13.9369 29.318L7.24499 22.6902Z" fill="#8D8D8D"/>
<path d="M7.24541 22.8494L13.7693 29.3107L7.24541 35.7722L0.721474 29.3185L7.24541 22.8494ZM7.24541 22.5266L0.387909 29.3185L7.24541 36.1103L14.1029 29.3185L7.24541 22.5266Z" fill="white"/>
<path d="M7.4409 23.5279L0.748932 30.1559L7.4409 36.7837L14.1329 30.1559L7.4409 23.5279Z" fill="#8D8D8D"/>
<path d="M7.43892 23.6868L13.9628 30.1483L7.43892 36.6098L0.914987 30.1483L7.43892 23.6868ZM7.43892 23.3642L0.581421 30.156L7.43892 36.9477L14.2964 30.156L7.43892 23.3642Z" fill="white"/>
<path d="M7.67048 24.3527L0.978516 30.9807L7.67048 37.6086L14.3625 30.9807L7.67048 24.3527Z" fill="#8D8D8D"/>
<path d="M7.67216 24.5166L14.1961 30.9781L7.67216 37.4472L1.14823 30.9858L7.67216 24.5166ZM7.67216 24.194L0.814667 30.9858L7.67216 37.7775L14.5297 30.9858L7.67216 24.194Z" fill="white"/>
<path d="M7.95082 25.1692L1.25885 31.7972L7.95082 38.425L14.6428 31.7972L7.95082 25.1692Z" fill="#8D8D8D"/>
<path d="M7.95159 25.331L14.4755 31.7924L7.95159 38.2539L1.4199 31.8001L7.95159 25.331ZM7.95159 25.0083L1.09409 31.8001L7.95159 38.592L14.8091 31.8001L7.95159 25.0083Z" fill="white"/>
<path d="M8.2611 25.9781L1.56912 32.6059L8.26108 39.2337L14.9531 32.6059L8.2611 25.9781Z" fill="#8D8D8D"/>
<path d="M8.26185 26.1453L14.7858 32.6068L8.26185 39.0683L1.73016 32.6068L8.26185 26.1453ZM8.26185 25.815L1.40436 32.6068L8.26185 39.3987L15.1193 32.6068L8.26185 25.815Z" fill="white"/>
<path d="M8.61294 26.7776L1.92096 33.4055L8.61294 40.0334L15.3049 33.4055L8.61294 26.7776Z" fill="#8D8D8D"/>
<path d="M8.61063 26.9367L15.1346 33.3982L8.61063 39.8597L2.08671 33.3982L8.61063 26.9367ZM8.61063 26.6141L1.75314 33.4059L8.61063 40.1976L15.4681 33.4059L8.61063 26.6141Z" fill="white"/>
<path d="M8.9975 27.5571L2.30554 34.185L8.9975 40.8129L15.6895 34.185L8.9975 27.5571Z" fill="#8D8D8D"/>
<path d="M8.99825 27.7204L15.5222 34.1819L8.99825 40.6433L2.47433 34.1819L8.99825 27.7204ZM8.99825 27.3901L2.14075 34.1819L8.99825 40.9736L15.8557 34.1819L8.99825 27.3901Z" fill="white"/>
<path d="M9.4316 28.3217L2.73962 34.9496L9.4316 41.5774L16.1235 34.9496L9.4316 28.3217Z" fill="#8D8D8D"/>
<path d="M9.43267 28.4887L15.9567 34.9502L9.43267 41.4117L2.90873 34.9502L9.43267 28.4887ZM9.43267 28.1584L2.57516 34.9502L9.43267 41.742L16.2902 34.9502L9.43267 28.1584Z" fill="white"/>
<path d="M9.89962 29.0762L3.20764 35.704L9.89962 42.3319L16.5916 35.704L9.89962 29.0762Z" fill="#8D8D8D"/>
<path d="M9.89822 29.234L16.4221 35.6953L9.89822 42.1568L3.37429 35.6953L9.89822 29.234ZM9.89822 28.9113L3.04071 35.7031L9.89822 42.4949L16.7556 35.7031L9.89822 28.9113Z" fill="white"/>
<path d="M10.4083 29.8037L3.71631 36.4317L10.4083 43.0595L17.1003 36.4317L10.4083 29.8037Z" fill="#8D8D8D"/>
<path d="M10.4103 29.9716L16.9342 36.4331L10.4103 42.9021L3.88633 36.4407L10.4103 29.9716ZM10.4103 29.6412L3.55276 36.4331L10.4103 43.2249L17.2678 36.4331L10.4103 29.6412Z" fill="white"/>
<path d="M10.9533 30.5203L4.26135 37.1483L10.9533 43.7761L17.6453 37.1483L10.9533 30.5203Z" fill="#8D8D8D"/>
<path d="M10.9532 30.6862L17.477 37.1475L10.9532 43.609L4.42924 37.1475L10.9532 30.6862ZM10.9532 30.3557L4.09567 37.1475L10.9532 43.9394L17.8107 37.1475L10.9532 30.3557Z" fill="white"/>
<path d="M11.5414 31.2094L4.84949 37.8374L11.5414 44.4652L18.2334 37.8374L11.5414 31.2094Z" fill="#8D8D8D"/>
<path d="M11.5431 31.3776L18.0671 37.8391L11.5431 44.3004L5.0192 37.8391L11.5431 31.3776ZM11.5431 31.0472L4.68564 37.8391L11.5431 44.6307L18.4006 37.8391L11.5431 31.0472Z" fill="white"/>
<path d="M12.1614 31.8817L5.46945 38.5095L12.1614 45.1373L18.8534 38.5095L12.1614 31.8817Z" fill="#8D8D8D"/>
<path d="M12.1631 32.046L18.687 38.5073L12.1631 44.9764L5.63917 38.5151L12.1631 32.046ZM12.1631 31.7232L5.3056 38.5151L12.1631 45.3069L19.0206 38.5151L12.1631 31.7232Z" fill="white"/>
<path d="M12.822 32.5273L6.13004 39.1553L12.822 45.7831L19.514 39.1553L12.822 32.5273Z" fill="#8D8D8D"/>
<path d="M12.8228 32.6913L19.3467 39.1528L12.8228 45.6219L6.29883 39.1606L12.8228 32.6913ZM12.8228 32.361L5.96527 39.1528L12.8228 45.9446L19.6803 39.1528L12.8228 32.361Z" fill="white"/>
<path d="M13.5116 33.1298L6.81967 39.7578L13.5116 46.3857L20.2036 39.7578L13.5116 33.1298Z" fill="#8D8D8D"/>
<path d="M13.5133 33.2984L20.0373 39.7597L13.5133 46.2212L6.98939 39.7597L13.5133 33.2984ZM13.5133 32.9679L6.65582 39.7597L13.5133 46.5515L20.3708 39.7597L13.5133 32.9679Z" fill="white"/>
<path d="M14.2187 33.6983L7.52676 40.3261L14.2187 46.9539L20.9107 40.3261L14.2187 33.6983Z" fill="#8D8D8D"/>
<path d="M14.2192 33.8592L20.7431 40.3207L14.2192 46.7898L7.69523 40.3283L14.2192 33.8592ZM14.2192 33.5365L7.36166 40.3283L14.2192 47.1201L21.0767 40.3283L14.2192 33.5365Z" fill="white"/>
<path d="M14.9426 34.2314L8.25064 40.8592L14.9426 47.487L21.6345 40.8592L14.9426 34.2314Z" fill="#8D8D8D"/>
<path d="M14.9405 34.3892L21.4644 40.8507L14.9405 47.3122L8.41656 40.8507L14.9405 34.3892ZM14.9405 34.0666L8.09076 40.8584L14.9482 47.6501L21.8057 40.8584L14.9405 34.0666Z" fill="white"/>
<path d="M15.6888 34.7129L8.99683 41.3407L15.6888 47.9687L22.3808 41.3407L15.6888 34.7129Z" fill="#8D8D8D"/>
<path d="M15.6929 34.8811L22.2169 41.3424L15.6929 47.8117L9.16898 41.3502L15.6929 34.8811ZM15.6929 34.5583L8.83542 41.3502L15.6929 48.142L22.5504 41.3502L15.6929 34.5583Z" fill="white"/>
<path d="M16.4525 35.1675L9.76044 41.7954L16.4525 48.4232L23.1444 41.7954L16.4525 35.1675Z" fill="#8D8D8D"/>
<path d="M16.4534 35.3343L22.9774 41.7958L16.4534 48.2572L9.92956 41.7958L16.4534 35.3343ZM16.4534 35.004L9.59598 41.7958L16.4534 48.5877L23.3109 41.7958L16.4534 35.004Z" fill="white"/>
<path d="M17.23 35.5847L10.5381 42.2125L17.23 48.8405L23.9221 42.2125L17.23 35.5847Z" fill="#8D8D8D"/>
<path d="M17.2289 35.7414L23.7606 42.2106L17.2366 48.672L10.705 42.2106L17.2289 35.7414ZM17.2289 35.4188L10.3792 42.2106L17.2366 49.0025L24.0941 42.2106L17.2289 35.4188Z" fill="white"/>
<path d="M18.0298 35.9567L11.3378 42.5845L18.0298 49.2125L24.7218 42.5845L18.0298 35.9567Z" fill="#8D8D8D"/>
<path d="M18.0281 36.1179L24.5521 42.5794L18.0281 49.0485L11.5042 42.587L18.0281 36.1179ZM18.0281 35.7953L11.1706 42.587L18.0281 49.3789L24.8856 42.587L18.0281 35.7953Z" fill="white"/>
<path d="M18.8329 36.2894L12.1409 42.9172L18.8329 49.545L25.5248 42.9172L18.8329 36.2894Z" fill="#8D8D8D"/>
<path d="M18.8348 36.456L25.3588 42.9175L18.8348 49.3788L12.3109 42.9175L18.8348 36.456ZM18.8348 36.1257L11.9773 42.9175L18.8348 49.7093L25.6923 42.9175L18.8348 36.1257Z" fill="white"/>
<path d="M19.6515 36.591L12.9595 43.2188L19.6515 49.8468L26.3434 43.2188L19.6515 36.591Z" fill="#8D8D8D"/>
<path d="M19.6494 36.7481L26.1734 43.2094L19.6494 49.6787L13.1256 43.2172L19.6494 36.7481ZM19.6494 36.4253L12.792 43.2172L19.6494 50.009L26.507 43.2172L19.6494 36.4253Z" fill="white"/>
<path d="M20.4777 36.8454L13.7858 43.4734L20.4777 50.1012L27.1698 43.4734L20.4777 36.8454Z" fill="#8D8D8D"/>
<path d="M20.4791 37.0091L27.0031 43.4706L20.4791 49.9321L13.9552 43.4706L20.4791 37.0091ZM20.4791 36.6788L13.6216 43.4706L20.4791 50.2624L27.3367 43.4706L20.4791 36.6788Z" fill="white"/>
<path d="M21.3184 37.0677L14.6265 43.6955L21.3184 50.3233L28.0104 43.6955L21.3184 37.0677Z" fill="#8D8D8D"/>
<path d="M21.3171 37.2244L27.8409 43.6858L21.3171 50.1473L14.7931 43.6858L21.3171 37.2244ZM21.3171 36.9017L14.4595 43.6935L21.3171 50.4853L28.1744 43.6935L21.3171 36.9017Z" fill="white"/>
<path d="M22.1615 37.2452L15.4695 43.8732L22.1615 50.501L28.8534 43.8732L22.1615 37.2452Z" fill="#8D8D8D"/>
<path d="M22.1626 37.4087L28.6866 43.8702L22.1626 50.3316L15.6386 43.8702L22.1626 37.4087ZM22.1626 37.0784L15.3051 43.8702L22.1626 50.6619L29.0201 43.8702L22.1626 37.0784Z" fill="white"/>
<path d="M23.0175 37.3894L16.3256 44.0172L23.0175 50.6452L29.7094 44.0172L23.0175 37.3894Z" fill="#8D8D8D"/>
<path d="M23.0161 37.547L29.54 44.0085L23.0161 50.47L16.4921 44.0085L23.0161 37.547ZM23.0161 37.2244L16.1585 44.0163L23.0161 50.8079L29.8736 44.0163L23.0161 37.2244Z" fill="white"/>
<path d="M23.8749 37.4869L17.1829 44.1149L23.8749 50.7427L30.5669 44.1149L23.8749 37.4869Z" fill="#8D8D8D"/>
<path d="M23.8772 37.6546L30.4012 44.1161L23.8772 50.5852L17.3532 44.1237L23.8772 37.6546ZM23.8772 37.3242L17.0197 44.1161L23.8772 50.9079L30.7347 44.1161L23.8772 37.3242Z" fill="white"/>
<path d="M24.7336 37.5586L18.0416 44.1865L24.7336 50.8143L31.4256 44.1865L24.7336 37.5586Z" fill="#8D8D8D"/>
<path d="M24.7304 37.716L31.2543 44.1775L24.7304 50.639L18.2065 44.1775L24.7304 37.716ZM24.7304 37.3934L17.8728 44.1852L24.7304 50.9769L31.5879 44.1852L24.7304 37.3934Z" fill="white"/>
<path d="M25.5926 37.583L18.9007 44.2108L25.5926 50.8386L32.2845 44.2108L25.5926 37.583Z" fill="#8D8D8D"/>
<path d="M25.5914 37.7391L32.1154 44.2006L25.5914 50.6621L19.0675 44.2083L25.5914 37.7391ZM25.5914 37.4165L18.7417 44.2083L25.5992 51L32.4489 44.2083L25.5914 37.4165Z" fill="white"/>
<path d="M26.4576 37.5628L19.7657 44.1906L26.4576 50.8186L33.1497 44.1906L26.4576 37.5628Z" fill="#8D8D8D"/>
<path d="M26.4606 37.7315L32.9846 44.1928L26.4606 50.6619L19.9367 44.2006L26.4606 37.7315ZM26.4606 37.401L19.6031 44.1928L26.4606 50.9847L33.3182 44.1928L26.4606 37.401Z" fill="white"/>
<path d="M27.3168 37.5202L20.6247 44.148L27.3168 50.7758L34.0087 44.148L27.3168 37.5202Z" fill="#8D8D8D"/>
<path d="M27.3138 37.6777L33.8378 44.1392L27.3138 50.6005L20.7898 44.1392L27.3138 37.6777ZM27.3138 37.3549L20.4563 44.1468L27.3138 50.9386L34.1713 44.1468L27.3138 37.3549Z" fill="white"/>
<path d="M28.1748 37.4261L21.4828 44.0539L28.1748 50.6819L34.8667 44.0539L28.1748 37.4261Z" fill="#8D8D8D"/>
<path d="M28.1746 37.5855L34.6986 44.0545L28.1746 50.516L21.6506 44.0545L28.1746 37.5855ZM28.1746 37.2627L21.3171 44.0545L28.1746 50.8464L35.0321 44.0545L28.1746 37.2627Z" fill="white"/>
<path d="M29.027 37.2962L22.3351 43.924L29.027 50.5518L35.7191 43.924L29.027 37.2962Z" fill="#8D8D8D"/>
<path d="M29.0278 37.4625L35.5518 43.924L29.0278 50.3854L22.5039 43.924L29.0278 37.4625ZM29.0278 37.1322L22.1703 43.924L29.0278 50.7159L35.8853 43.924L29.0278 37.1322Z" fill="white"/>
<path d="M29.8723 37.1289L23.1804 43.7569L29.8723 50.3848L36.5643 43.7569L29.8723 37.1289Z" fill="#8D8D8D"/>
<path d="M29.8737 37.2934L36.3976 43.7549L29.8737 50.2164L23.3497 43.7549L29.8737 37.2934ZM29.8737 36.9631L23.0162 43.7549L29.8737 50.5467L36.7311 43.7549L29.8737 36.9631Z" fill="white"/>
<path d="M30.7153 36.9189L24.0234 43.5467L30.7153 50.1747L37.4074 43.5467L30.7153 36.9189Z" fill="#8D8D8D"/>
<path d="M30.7189 37.086L37.2429 43.5475L30.7189 50.0088L24.1949 43.5475L30.7189 37.086ZM30.7189 36.7556L23.8614 43.5475L30.7189 50.3393L37.5764 43.5475L30.7189 36.7556Z" fill="white"/>
<path d="M31.5456 36.6746L24.8537 43.3026L31.5456 49.9304L38.2376 43.3026L31.5456 36.6746Z" fill="#8D8D8D"/>
<path d="M31.5492 36.8401L38.0731 43.3016L31.5492 49.7631L25.0252 43.3016L31.5492 36.8401ZM31.5492 36.5175L24.6917 43.3016L31.5492 50.0935L38.4066 43.3016L31.5492 36.5175Z" fill="white"/>
<path d="M32.3731 36.3963L25.6812 43.0242L32.3731 49.652L39.0652 43.0242L32.3731 36.3963Z" fill="#8D8D8D"/>
<path d="M32.3716 36.556L38.8954 43.0175L32.3716 49.4866L25.8476 43.0251L32.3716 36.556ZM32.3716 36.2332L25.514 43.0251L32.3716 49.8169L39.2289 43.0251L32.3716 36.2332Z" fill="white"/>
<path d="M33.1864 36.072L26.4943 42.7L33.1864 49.3279L39.8783 42.7L33.1864 36.072Z" fill="#8D8D8D"/>
<path d="M33.1856 36.2332L39.7094 42.6947L33.1856 49.1561L26.6616 42.6947L33.1856 36.2332ZM33.1856 35.9105L26.3281 42.7023L33.1856 49.4942L40.0431 42.7023L33.1856 35.9105Z" fill="white"/>
<path d="M33.9851 35.7107L27.2931 42.3385L33.9851 48.9665L40.677 42.3385L33.9851 35.7107Z" fill="#8D8D8D"/>
<path d="M33.9849 35.8722L40.5089 42.3337L33.9849 48.7951L27.4609 42.3337L33.9849 35.8722ZM33.9849 35.5495L27.1274 42.3413L33.9849 49.1331L40.8424 42.3413L33.9849 35.5495Z" fill="white"/>
<path d="M34.7695 35.3115L28.0776 41.9395L34.7695 48.5673L41.4615 41.9395L34.7695 35.3115Z" fill="#8D8D8D"/>
<path d="M34.7684 35.4726L41.2924 41.9341L34.7684 48.3954L28.2444 41.9341L34.7684 35.4726ZM34.7684 35.1498L27.9109 41.9417L34.7684 48.7335L41.6259 41.9417L34.7684 35.1498Z" fill="white"/>
<path d="M35.5377 34.8742L28.8458 41.5021L35.5377 48.1299L42.2296 41.5021L35.5377 34.8742Z" fill="#8D8D8D"/>
<path d="M35.5363 35.0347L42.0603 41.4962L35.5363 47.9575L29.0125 41.4962L35.5363 35.0347ZM35.5363 34.7119L28.6788 41.5038L35.5363 48.2956L42.3938 41.5038L35.5363 34.7119Z" fill="white"/>
<path d="M36.2847 34.392L29.5928 41.0198L36.2847 47.6478L42.9768 41.0198L36.2847 34.392Z" fill="#8D8D8D"/>
<path d="M36.2889 34.5583L42.8128 41.0198L36.2889 47.4813L29.765 41.0198L36.2889 34.5583ZM36.2889 34.2357L29.4314 41.0276L36.2889 47.8192L43.1465 41.0276L36.2889 34.2357Z" fill="white"/>
<path d="M37.0163 33.8798L30.3243 40.5076L37.0163 47.1356L43.7084 40.5076L37.0163 33.8798Z" fill="#8D8D8D"/>
<path d="M37.018 34.0435L43.542 40.505L37.018 46.9741L30.494 40.5128L37.018 34.0435ZM37.018 33.7132L30.1605 40.505L37.018 47.2969L43.8755 40.505L37.018 33.7132Z" fill="white"/>
<path d="M37.7305 33.3264L31.0385 39.9542L37.7305 46.5821L44.4224 39.9542L37.7305 33.3264Z" fill="#8D8D8D"/>
<path d="M37.7319 33.4904L44.2557 39.9519L37.7319 46.4132L31.2079 39.9519L37.7319 33.4904ZM37.7319 33.1601L30.8743 39.9519L37.7319 46.7436L44.5892 39.9519L37.7319 33.1601Z" fill="white"/>
<path d="M38.428 32.7299L31.7361 39.3577L38.428 45.9856L45.12 39.3577L38.428 32.7299Z" fill="#8D8D8D"/>
<path d="M38.4298 32.8989L44.9536 39.3602L38.4298 45.8217L31.9058 39.3602L38.4298 32.8989ZM38.4298 32.5685L31.5722 39.3602L38.4298 46.1521L45.2871 39.3602L38.4298 32.5685Z" fill="white"/>
<path d="M39.0965 32.1009L32.4046 38.7288L39.0965 45.3567L45.7886 38.7288L39.0965 32.1009Z" fill="#8D8D8D"/>
<path d="M39.097 32.2611L45.621 38.7226L39.097 45.184L32.5732 38.7226L39.097 32.2611ZM39.097 31.9384L32.2395 38.7302L39.097 45.5221L45.9545 38.7302L39.097 31.9384Z" fill="white"/>
</g>
<defs>
<clipPath id="clip0_95_2419">
<rect width="185" height="51" fill="white"/>
</clipPath>
</defs>
</svg>
